<svg height='100px' width='100px'  fill="#000000" xmlns="http://www.w3.org/2000/svg" xmlns:xlink="http://www.w3.org/1999/xlink" version="1.1" x="0px" y="0px" viewBox="0 0 95 95" style="enable-background:new 0 0 95 95;" xml:space="preserve"><style type="text/css">
	.st0{fill:none;}
	.st1{fill:none;stroke:#000000;stroke-width:10;stroke-miterlimit:10;}
	.st2{fill:none;stroke:#000000;stroke-width:10;stroke-linejoin:round;stroke-miterlimit:10;}
	.st3{fill:none;stroke:#000000;stroke-width:10;stroke-linecap:round;stroke-linejoin:round;stroke-miterlimit:10;}
</style><g><rect x="2.5" y="2.5" class="st0" width="90" height="90"></rect></g><g><path d="M4.8,40.2c-1.2,0-2.4-0.5-3.4-1.4c-1.9-1.9-1.9-4.9,0-6.7L32.1,1.4c1.9-1.9,4.9-1.9,6.7,0c1.9,1.9,1.9,4.9,0,6.7L8.1,38.8   C7.2,39.7,6,40.2,4.8,40.2z"></path><path d="M35.5,70.9c-1.2,0-2.4-0.5-3.4-1.4L1.4,38.8c-1.9-1.9-1.9-4.9,0-6.7c1.9-1.9,4.9-1.9,6.7,0l30.7,30.7   c1.9,1.9,1.9,4.9,0,6.7C37.9,70.4,36.7,70.9,35.5,70.9z"></path><path d="M90.2,95c-2.6,0-4.8-2.1-4.8-4.8c0-32.4-17.8-50.2-50-50.2H7c-2.6,0-4.7-2.1-4.7-4.8s2.1-4.7,4.7-4.7h28.5   c19.1,0,34,5.5,44.4,16.3C89.8,57.2,95,72.2,95,90.2C95,92.9,92.9,95,90.2,95z"></path></g></svg>